<?xml version="1.0" encoding="utf-8"?>
<svg width="298px" height="48px" viewBox="0 0 298 48" version="1.1" xmlns:xlink="http://www.w3.org/1999/xlink" xmlns="http://www.w3.org/2000/svg">
  <defs>
    <path d="M0 0L48 0L48 48L0 48L0 0Z" id="path_1" />
    <clipPath id="mask_1">
      <use xlink:href="#path_1" />
    </clipPath>
  </defs>
  <g id="Redes-social">
    <g id="Instagram-Ícone">
      <path d="M0 0L48 0L48 48L0 48L0 0Z" id="Fundo" fill="#FFFFFF" fill-opacity="0" fill-rule="evenodd" stroke="none" />
      <g clip-path="url(#mask_1)">
        <path d="M41.67 13.48C41.27 13.74 40.7 13.98 40.46 14.25C40.37 14.34 40.32 14.44 40.34 14.54L40.34 15.57L40.04 16.58L39.74 17.58L39.41 18.68L38.73 20.93L38.07 23.15L37.57 24.82C37.57 25.08 37.56 25.34 37.54 25.59C37.47 26.55 37.27 27.47 36.95 28.33C36.76 28.86 36.53 29.37 36.25 29.85C36.15 30.04 36.03 30.23 35.91 30.41C35.51 31.04 35.03 31.62 34.5 32.13C34.09 32.54 33.64 32.92 33.15 33.24C33.15 33.24 33.15 33.24 33.14 33.24C33.06 33.31 32.97 33.37 32.87 33.42C32.56 33.63 32.23 33.81 31.89 33.97C31.66 34.09 31.43 34.19 31.19 34.28C31.14 34.31 31.08 34.33 31.03 34.35C30.46 34.62 29.8 34.8 29.14 34.89C29.1 34.9 29.07 34.9 29.03 34.91C28.63 34.98 28.24 35.04 27.84 35.07C27.66 35.09 27.47 35.1 27.29 35.1L26.58 35.06L23.16 34.88C23.16 34.87 23.15 34.88 23.15 34.88L21.43 34.79C21.3 34.79 21.16 34.79 21.03 34.78C20.49 34.76 19.97 34.7 19.45 34.59C19.44 34.59 19.44 34.59 19.44 34.59C18.49 34.41 17.58 34.09 16.73 33.66C16.26 33.42 15.8 33.15 15.37 32.84C15.19 32.71 15.02 32.57 14.85 32.42C14.37 32.02 13.94 31.59 13.54 31.15C13.48 31.09 13.43 31.03 13.38 30.97C13.32 30.91 13.26 30.84 13.21 30.78C12.83 30.3 12.51 29.81 12.25 29.29C12.01 28.83 11.82 28.34 11.67 27.8C11.61 27.61 11.56 27.43 11.52 27.23C11.51 27.22 11.5 27.2 11.5 27.18C11.4 26.77 11.31 26.34 11.26 25.91C11.2 25.58 11.17 25.25 11.17 24.91C11.15 24.78 11.15 24.64 11.15 24.51L13.06 21.56L14.93 18.68L15.78 17.37L16.55 16.19L16.81 15.78L16.81 14.75C16.83 14.52 16.84 14.28 16.83 14.06C16.82 13.36 16.68 12.68 16.45 12.03C16.23 11.34 15.92 10.69 15.6 10.09C15.22 9.40001 14.82 8.78001 14.49 8.22001C14 7.4 13.66 6.73 13.75 6.26C14.47 6.09 15.23 6 16 6L32 6C36.18 6 39.78 8.6 41.27 12.26C41.43 12.65 41.57 13.06 41.67 13.48L41.67 13.48Z" id="Forma" fill="#304FFE" stroke="none" />
        <path d="M42 16L42 16.27L40.62 17.07L39.74 17.58L38.77 18.14L36.83 19.27L34.93 20.37L32.99 21.49L32.22 21.94C32.22 22.42 32.1 22.86 31.88 23.26C31.57 23.84 31.05 24.32 30.39 24.73C29.72 25.14 28.9 25.47 27.98 25.71C27.98 25.71 27.98 25.7 27.97 25.71C24.41 26.63 19.55 26.21 17.19 24.45C16.53 23.96 16.07 23.36 15.87 22.67C15.81 22.44 15.78 22.19 15.78 21.94L15.78 14.75C15.79 14.6 15.69 14.45 15.51 14.3C14.97 13.87 13.7 13.46 12.28 13.05C11.17 12.74 9.98 12.43 8.98 12.13C8.19 11.89 7.52 11.65 7.12 11.42C7.3 11.07 7.51 10.72 7.73 10.39C9.13 8.34 11.27 6.83 13.75 6.26C14.47 6.09 15.23 6 16 6L26.8 6C32.17 6.94 37.12 9.13 41.27 12.26C41.43 12.65 41.57 13.06 41.67 13.48C41.85 14.14 41.96 14.82 41.99 15.53C42 15.68 42 15.84 42 16L42 16Z" id="Forma" fill="#4928F4" stroke="none" />
        <path d="M42 16L42 20.41L41.78 21.09L41.03 23.42L40.25 25.82L39.84 27.1L39.46 28.29L39.09 29.42L38.73 30.54L38.54 31.13L38.29 31.91C38.29 32.67 38.27 33.34 38.22 33.91C38.21 33.97 38.2 34.03 38.2 34.09C38.14 34.62 38.06 35.07 37.93 35.45C37.92 35.51 37.9 35.57 37.88 35.62C37.62 36.34 37.23 36.8 36.65 37.1C36.51 37.18 36.35 37.24 36.18 37.3C35.65 37.48 34.98 37.57 34.16 37.62C33.56 37.66 32.87 37.67 32.09 37.67L31.4 37.67L30.21 37.62L30 37.61L27.83 37.52L25.63 37.43L18.38 37.13L16.5 37.05L16.24 37.05C15.46 37.04 14.79 36.99 14.21 36.91C13.37 36.78 12.72 36.56 12.23 36.23C11.53 35.78 11.12 35.12 10.88 34.2C10.82 33.98 10.77 33.75 10.74 33.5C10.64 32.92 10.59 32.25 10.56 31.5C10.56 31.35 10.56 31.2 10.55 31.04C10.54 31.03 10.55 31.03 10.55 31.03L10.55 30.45C10.54 30.16 10.54 29.86 10.54 29.55L10.59 27.94L10.62 26.79L10.66 25.45L10.66 25.26L10.73 22.8L10.8 20.34L10.87 18.03L10.93 15.76L10.95 15.16C10.95 14.85 9.9 14.67 8.73 14.52C7.8 14.4 6.78 14.29 6.17 14.15C6.22 13.92 6.27 13.69 6.33 13.47C6.51 12.75 6.78 12.07 7.12 11.42C7.3 11.07 7.51 10.72 7.73 10.39C9.89 9.44 12.14 8.7 14.49 8.22C16.55 7.79 18.7 7.56 20.92 7.56C28.28 7.56 35.08 10.05 40.46 14.25C40.98 14.65 41.49 15.08 41.99 15.53C42 15.68 42 15.84 42 16L42 16Z" id="Forma" fill="#6200EA" stroke="none" />
        <path d="M42 18.37L42 22.91L41.45 23.97L40.4 26.02L39.84 27.1L39.33 28.09L39.11 28.52C39.11 28.83 39.11 29.13 39.09 29.42C39.09 29.85 39.07 30.26 39.04 30.64C39 31.09 38.94 31.5 38.88 31.88C38.73 32.67 38.52 33.35 38.22 33.91C38.18 33.98 38.14 34.05 38.1 34.11C37.99 34.29 37.86 34.46 37.72 34.62C37.54 34.84 37.34 35.03 37.11 35.19C36.77 35.45 36.37 35.66 35.91 35.82C35.34 36.03 34.68 36.17 33.9 36.25C33.39 36.3 32.83 36.33 32.22 36.33L31.8 36.35L29.72 36.47L29.71 36.47L27.5 36.6L25.25 36.73L22.15 36.91L18.38 37.13L17.83 37.16C17.32 37.16 16.84 37.13 16.38 37.07C16.33 37.06 16.29 37.05 16.24 37.05C15.56 36.94 14.94 36.76 14.38 36.51C13.7 36.21 13.11 35.81 12.61 35.33C12.17 34.9 11.79 34.41 11.48 33.86C11.41 33.73 11.34 33.61 11.28 33.47C10.98 32.88 10.74 32.22 10.56 31.5C10.53 31.38 10.5 31.25 10.48 31.12C10.42 30.89 10.37 30.65 10.34 30.4C10.23 29.76 10.17 29.08 10.14 28.37L10.14 28.36C10.13 28.07 10.12 27.79 10.12 27.49L9.63 26.32L9.56 26.14L9.5 25.99L8.75 24.2L8.63 23.91L7.91 22.18L7.11 20.25C7.11 20.25 7.11 20.25 7.1 20.25L6.29 18.3L6 17.59L6 16C6 15.37 6.06 14.75 6.17 14.15C6.22 13.92 6.27 13.69 6.33 13.47C7.18 12.98 8.07 12.53 8.98 12.13C11.06 11.2 13.29 10.51 15.6 10.09C17.32 9.78 19.11 9.61 20.92 9.61C28.23 9.61 34.86 12.26 40.04 16.58C40.24 16.74 40.43 16.9 40.62 17.07C41.09 17.48 41.55 17.91 42 18.37L42 18.37Z" id="Forma" fill="#673AB7" stroke="none" />
        <path d="M42 21.35L42 26.49L41.43 27.68L40.35 29.93L40.34 29.96C40.34 30.39 40.32 30.78 40.29 31.13C40.19 32.28 39.91 33.01 39.45 33.46C39.12 33.8 38.71 33.99 38.2 34.09C38.17 34.1 38.13 34.1 38.1 34.11C37.94 34.14 37.77 34.16 37.59 34.16C36.97 34.22 36.24 34.18 35.4 34.12C35.31 34.12 35.21 34.11 35.11 34.1C34.5 34.06 33.85 34.02 33.13 33.99C32.74 33.98 32.33 33.97 31.91 33.97L31.89 33.97L30.88 34.05L30.87 34.05L28.6 34.21L26.01 34.41L25.63 34.44L22.6 34.66L21.03 34.78L19.48 34.89C19.21 34.89 18.95 34.89 18.69 34.88C18.69 34.88 18.68 34.87 18.68 34.88C17.55 34.86 16.54 34.79 15.64 34.62C14.81 34.48 14.08 34.26 13.46 33.93C12.82 33.62 12.29 33.18 11.86 32.62C11.45 32.07 11.15 31.38 10.96 30.55C10.96 30.54 10.96 30.54 10.96 30.54C10.82 29.87 10.74 29.09 10.74 28.21L10.59 27.94L9.7 26.35L9.57 26.13L9.5 25.99L8.57 24.34L8.11 23.51L7.53 22.48L6.53 20.69L6 19.75L6 16.07C6.88 15.49 7.79 14.98 8.73 14.52C9.87 13.94 11.05 13.45 12.28 13.05C13.62 12.61 15.02 12.26 16.45 12.03C17.9 11.79 19.39 11.67 20.92 11.67C27.72 11.67 33.96 14.1 38.77 18.14C38.99 18.31 39.2 18.5 39.41 18.68C40.25 19.43 41.05 20.24 41.78 21.09C41.86 21.18 41.94 21.26 42 21.35L42 21.35Z" id="Forma" fill="#8E24AA" stroke="none" />
        <path d="M42 24.71L42 31.94C41.76 31.8 41.43 31.63 41.02 31.45C40.8 31.34 40.55 31.23 40.29 31.13C39.91 30.96 39.5 30.8 39.04 30.64C38.94 30.6 38.84 30.57 38.73 30.54C38.55 30.47 38.36 30.41 38.17 30.35C37.58 30.17 36.93 30 36.25 29.85C35.99 29.8 35.72 29.75 35.45 29.71C34.58 29.56 33.65 29.47 32.68 29.46C32.6 29.45 32.51 29.45 32.43 29.45L29.86 29.47L26.36 29.49L26.35 29.49L18.86 29.55C16.48 29.55 15.02 30.12 14.14 30.35C14.14 30.35 14.13 30.35 14.13 30.36C13.2 30.6 12.91 30.45 12.83 28.82C12.81 28.37 12.8 27.79 12.8 27.08L12.24 26.65L11.26 25.91L10.66 25.45L10.54 25.36L8.88 24.1L8.63 23.91L8.11 23.51L7.15 22.79L6 21.91L6 18.51C6.1 18.43 6.19 18.36 6.29 18.3C7.74 17.3 9.29 16.45 10.93 15.76C12.39 15.14 13.93 14.65 15.51 14.3C15.94 14.21 16.38 14.12 16.83 14.06C18.16 13.83 19.53 13.72 20.92 13.72C26.93 13.72 32.45 15.81 36.83 19.27C37.49 19.79 38.13 20.34 38.73 20.93C39.55 21.71 40.32 22.54 41.03 23.42C41.17 23.6 41.31 23.78 41.45 23.97C41.64 24.21 41.82 24.46 42 24.71L42 24.71Z" id="Forma" fill="#C2185B" stroke="none" />
        <path d="M42 28.72L42 32C42 32.65 41.94 33.29 41.82 33.91C41.64 34.83 41.33 35.71 40.91 36.53C40.69 36.58 40.44 36.58 40.16 36.54C39.53 36.43 38.79 36.1 37.99 35.67C37.95 35.66 37.91 35.64 37.88 35.62C37.63 35.49 37.37 35.35 37.11 35.19C36.58 34.9 36.02 34.58 35.46 34.28C35.34 34.22 35.22 34.16 35.11 34.1C34.47 33.77 33.81 33.47 33.15 33.24C33.15 33.24 33.15 33.24 33.14 33.24C33 33.19 32.85 33.14 32.7 33.1C32.13 32.94 31.55 32.84 30.99 32.84L29.89 32.52L25.02 31.11C25.02 31.11 25.02 31.11 25.01 31.11L22.02 30.24L22.01 30.24L20.71 29.86C16.95 29.86 14.64 31.46 13.52 30.85C13.08 30.62 12.82 30.04 12.73 28.9C12.7 28.58 12.69 28.22 12.69 27.8L11.52 27.23L11.47 27.21L11.46 27.21L10.62 26.79L9.7 26.35L9.63 26.32L9.46 26.23L7.5 25.28L6 24.55L6 21.12C6.17 20.97 6.35 20.83 6.53 20.69C6.72 20.54 6.91 20.4 7.1 20.25C7.11 20.25 7.11 20.25 7.11 20.25C8.29 19.4 9.54 18.65 10.87 18.03C12.42 17.29 14.07 16.72 15.78 16.35C16.03 16.29 16.29 16.23 16.55 16.19C17.97 15.92 19.43 15.78 20.92 15.78C26.19 15.78 31.03 17.49 34.93 20.37C36.06 21.21 37.11 22.14 38.07 23.15C38.86 23.98 39.59 24.88 40.25 25.82C40.3 25.89 40.35 25.96 40.4 26.02C40.77 26.56 41.11 27.11 41.43 27.68C41.64 28.02 41.82 28.37 42 28.72L42 28.72Z" id="Forma" fill="#D81B60" stroke="none" />
        <path d="M41.82 33.91C41.64 34.83 41.33 35.71 40.91 36.53C40.72 36.9 40.51 37.25 40.28 37.59C40.14 37.8 39.99 38 39.84 38.19C39.48 38.05 38.95 37.85 38.3 37.63C38.3 37.63 38.3 37.63 38.3 37.62C37.81 37.45 37.25 37.27 36.65 37.1C36.48 37.05 36.31 37 36.13 36.95C35.42 36.76 34.68 36.59 33.96 36.49C33.36 36.39 32.77 36.33 32.22 36.33L31.76 36.2L31.75 36.2L29.33 35.5L27.84 35.07L26.18 34.59L26.17 34.59L25.63 34.44L19.1 32.56L17.22 32.02L15.82 31.69L13.54 31.15L13.26 31.08C13.26 31.08 13.26 31.08 13.25 31.08L10.96 30.55C10.96 30.54 10.96 30.54 10.96 30.54L10.55 30.45L10.34 30.4L8.67 30.01L8.48 29.96L7.06 28.79L6 27.9L6 23.82C6.37 23.46 6.75 23.12 7.15 22.79C7.27 22.68 7.4 22.58 7.53 22.48C7.65 22.38 7.78 22.28 7.91 22.18C8.82 21.49 9.78 20.87 10.8 20.34C12.1 19.64 13.48 19.08 14.93 18.68C15.21 18.59 15.49 18.51 15.78 18.45C17.42 18.04 19.14 17.83 20.92 17.83C25.39 17.83 29.55 19.18 32.99 21.49C34.7 22.64 36.24 24.02 37.54 25.59C38.2 26.38 38.8 27.21 39.33 28.09C39.38 28.16 39.42 28.22 39.46 28.29C39.78 28.82 40.08 29.37 40.35 29.93C40.6 30.43 40.82 30.93 41.02 31.45C41.34 32.25 41.6 33.07 41.82 33.91L41.82 33.91Z" id="Forma" fill="#F50057" stroke="none" />
        <path d="M40.28 37.59C40.14 37.8 39.99 38 39.84 38.19C39.4 38.74 38.92 39.24 38.38 39.68C37.91 40.07 37.41 40.42 36.88 40.72C36.68 40.67 36.48 40.61 36.27 40.53C35.61 40.3 34.92 39.92 34.28 39.52C33.32 38.91 32.49 38.25 32.12 37.95C31.98 37.83 31.91 37.77 31.91 37.77L30.21 37.62L30 37.6L27.8 37.41L25.52 37.21L22.15 36.91L16.81 36.44L16.79 36.43L14.91 35.52L13.01 34.6L11.48 33.86L11.15 33.7L10.74 33.5L9.32 32.81L7.43 31.9L6.84 31.61L6 31.35L6 26.88C6.47 26.32 6.97 25.79 7.5 25.28C7.84 24.96 8.2 24.64 8.57 24.34C8.63 24.29 8.69 24.24 8.75 24.2C8.79 24.15 8.84 24.12 8.88 24.1C9.47 23.62 10.09 23.19 10.73 22.8C11.47 22.33 12.25 21.91 13.06 21.56C13.93 21.17 14.84 20.84 15.78 20.59C17.41 20.13 19.14 19.89 20.92 19.89C25 19.89 28.77 21.13 31.88 23.26C33.87 24.62 35.59 26.34 36.95 28.33C37.4 28.97 37.8 29.65 38.17 30.35C38.3 30.61 38.43 30.87 38.54 31.13C38.66 31.38 38.77 31.63 38.88 31.88C39.09 32.4 39.28 32.92 39.45 33.46C39.77 34.46 40.01 35.48 40.16 36.54C40.21 36.89 40.25 37.24 40.28 37.59L40.28 37.59Z" id="Forma" fill="#FF1744" stroke="none" />
        <path d="M38.39 39.42C38.39 39.5 38.39 39.59 38.38 39.68C37.91 40.07 37.41 40.42 36.88 40.72C36.66 40.84 36.44 40.96 36.21 41.06C35.98 41.17 35.75 41.27 35.51 41.36C35.17 41.18 34.71 40.96 34.22 40.75C33.53 40.44 32.78 40.16 32.2 40.07C32.06 40.04 31.93 40.03 31.81 40.03L30.17 39.82L30.15 39.82L28.11 39.55L26.05 39.28L25.09 39.16L17.53 38.18C17.04 38.18 16.52 38.15 15.98 38.08C15.32 38.02 14.63 37.92 13.94 37.78C13.26 37.66 12.57 37.5 11.91 37.33C11.22 37.17 10.54 36.98 9.91 36.8C9.18 36.58 8.5 36.37 7.93 36.18C7.46 36.03 7.06 35.89 6.75 35.78C6.57 35.35 6.42 34.9 6.31 34.44C6.1 33.66 6 32.84 6 32L6 30.33C6.32 29.8 6.67 29.28 7.06 28.79C7.77 27.85 8.58 26.99 9.46 26.23C9.49 26.19 9.53 26.16 9.56 26.14L9.57 26.13C9.88 25.85 10.2 25.6 10.54 25.36C10.58 25.32 10.62 25.29 10.66 25.26C10.82 25.14 10.99 25.02 11.17 24.91C12.6 23.94 14.18 23.18 15.87 22.67C17.47 22.19 19.16 21.94 20.92 21.94C24.41 21.94 27.67 22.97 30.39 24.73C32.4 26.02 34.13 27.72 35.45 29.71C35.61 29.94 35.76 30.17 35.91 30.41C36.6 31.58 37.17 32.84 37.59 34.16C37.64 34.31 37.68 34.46 37.72 34.62C37.8 34.89 37.87 35.17 37.93 35.45C37.95 35.52 37.97 35.59 37.99 35.67C38.13 36.3 38.23 36.96 38.3 37.62C38.3 37.63 38.3 37.63 38.3 37.63C38.36 38.22 38.39 38.82 38.39 39.42L38.39 39.42Z" id="Forma" fill="#FF5722" stroke="none" />
        <path d="M36.33 39.42C36.33 39.77 36.31 40.15 36.27 40.53C36.25 40.71 36.23 40.89 36.21 41.06C35.98 41.17 35.75 41.27 35.51 41.36C35.06 41.53 34.6 41.67 34.13 41.77C33.81 41.84 33.48 41.9 33.15 41.93L33.14 41.93C32.83 41.74 32.47 41.51 32.1 41.25C31.43 40.78 30.73 40.25 30.17 39.82C30.16 39.81 30.16 39.81 30.15 39.8C29.56 39.35 29.14 39.01 29.14 39.01L28.08 39.05L26.04 39.12L25.09 39.16L21.27 39.3L18.04 39.42C17.83 39.43 17.58 39.43 17.27 39.42L17.26 39.42C16.84 39.41 16.34 39.38 15.79 39.33C15.15 39.28 14.45 39.22 13.74 39.15C13.05 39.07 12.35 38.99 11.68 38.91C10.94 38.83 10.24 38.74 9.64 38.66C9.17 38.6 8.76 38.55 8.43 38.51C8.15 38.19 7.9 37.86 7.66 37.5C7.3 36.96 6.99 36.39 6.75 35.78C6.57 35.35 6.42 34.9 6.31 34.44C6.6 33.55 6.98 32.71 7.43 31.9C7.79 31.24 8.21 30.61 8.67 30.01C9.12 29.42 9.61 28.87 10.14 28.37L10.14 28.36C10.29 28.21 10.44 28.07 10.59 27.94C10.87 27.68 11.16 27.44 11.46 27.21L11.47 27.21C11.48 27.19 11.49 27.19 11.5 27.18C11.74 26.99 11.99 26.82 12.24 26.65C13.72 25.64 15.39 24.89 17.19 24.45C18.38 24.16 19.63 24 20.92 24C23.46 24 25.86 24.61 27.97 25.71L27.98 25.71C29.79 26.64 31.39 27.92 32.68 29.46C33.39 30.28 34 31.18 34.5 32.13C34.85 32.77 35.15 33.44 35.4 34.12C35.42 34.18 35.44 34.23 35.46 34.28C35.63 34.78 35.78 35.3 35.91 35.82C36 36.19 36.07 36.57 36.13 36.95C36.15 37.07 36.17 37.18 36.18 37.3C36.28 37.99 36.33 38.7 36.33 39.42L36.33 39.42Z" id="Forma" fill="#FF6F00" stroke="none" />
        <path d="M34.28 39.42L34.28 39.52C34.28 39.86 34.25 40.29 34.22 40.75C34.19 41.09 34.16 41.44 34.13 41.77C33.81 41.84 33.48 41.9 33.15 41.93L33.14 41.93C32.76 41.98 32.39 42 32 42L30.25 42L29.87 41.89L27.9 41.29L25.9 40.69L21.27 39.3L19.27 38.7C19.27 38.7 18.44 39.03 17.27 39.42L17.26 39.42C16.81 39.57 16.32 39.73 15.8 39.89C15.15 40.08 14.46 40.27 13.78 40.42C13.08 40.58 12.39 40.7 11.77 40.75C11.58 40.77 11.39 40.78 11.22 40.78C10.66 40.47 10.12 40.1 9.63 39.69C9.2 39.33 8.8 38.94 8.43 38.51C8.15 38.19 7.9 37.86 7.66 37.5C7.73 37.05 7.81 36.61 7.93 36.18C8.23 34.99 8.7 33.85 9.32 32.81C9.66 32.22 10.04 31.65 10.48 31.12C10.49 31.09 10.52 31.06 10.55 31.04C10.54 31.03 10.55 31.03 10.55 31.03C10.68 30.86 10.82 30.7 10.96 30.55C10.96 30.54 10.96 30.54 10.96 30.54C11.37 30.1 11.79 29.68 12.25 29.29C12.41 29.16 12.56 29.03 12.73 28.9C12.76 28.87 12.79 28.85 12.83 28.82C15.08 27.1 17.89 26.06 20.92 26.06C24.36 26.06 27.49 27.35 29.86 29.47C31 30.5 31.97 31.73 32.7 33.1C32.76 33.2 32.82 33.31 32.87 33.42C32.96 33.6 33.05 33.79 33.13 33.99C33.46 34.71 33.72 35.47 33.9 36.25C33.92 36.33 33.94 36.41 33.96 36.49C34.04 36.86 34.11 37.24 34.16 37.62C34.24 38.21 34.28 38.81 34.28 39.42L34.28 39.42Z" id="Forma" fill="#FF9800" stroke="none" />
        <path d="M32.22 39.42C32.22 39.62 32.21 39.84 32.2 40.07C32.18 40.44 32.15 40.84 32.1 41.25C32.08 41.5 32.04 41.75 32 42L26.52 42L25.46 41.83L21.32 41.17L20.73 41.08L19.38 40.86C18.79 40.86 17.51 41.12 16.16 41.37C15.45 41.5 14.73 41.64 14.08 41.73C14 41.74 13.92 41.75 13.85 41.76L13.84 41.76C13.14 41.61 12.46 41.38 11.82 41.08C11.62 40.99 11.42 40.89 11.22 40.78C10.66 40.47 10.12 40.1 9.63 39.69C9.62 39.57 9.61 39.47 9.61 39.42C9.61 39.16 9.62 38.91 9.64 38.66C9.68 38.02 9.77 37.4 9.91 36.8C10.13 35.89 10.45 35.01 10.88 34.2C10.96 34.03 11.05 33.86 11.15 33.7C11.19 33.62 11.24 33.55 11.28 33.47C11.46 33.18 11.66 32.9 11.86 32.62C12.28 32.07 12.75 31.55 13.25 31.08C13.26 31.08 13.26 31.08 13.26 31.08C13.3 31.04 13.34 31 13.38 30.97C13.43 30.93 13.47 30.88 13.52 30.85C13.72 30.67 13.92 30.51 14.13 30.36C14.13 30.35 14.14 30.35 14.14 30.35C16.03 28.94 18.37 28.11 20.92 28.11C22.9 28.11 24.74 28.61 26.35 29.49L26.36 29.49C27.74 30.25 28.94 31.28 29.89 32.52C30.26 33 30.59 33.51 30.87 34.05L30.88 34.05C30.93 34.15 30.98 34.25 31.03 34.35C31.33 34.94 31.57 35.56 31.75 36.2L31.76 36.2C31.77 36.25 31.79 36.3 31.8 36.35C31.92 36.78 32.02 37.22 32.09 37.67C32.1 37.76 32.11 37.86 32.12 37.95C32.19 38.43 32.22 38.92 32.22 39.42L32.22 39.42Z" id="Forma" fill="#FFC107" stroke="none" />
        <path d="M30.17 39.31C30.17 39.47 30.17 39.64 30.15 39.8L30.15 39.81C30.15 39.82 30.15 39.82 30.15 39.82C30.13 40.54 30.03 41.25 29.87 41.89C29.87 41.93 29.86 41.96 29.84 42L25.17 42L21.32 41.17L20.81 41.06L20.73 41.08L16.46 41.96L16.27 42L16 42C15.36 42 14.73 41.94 14.12 41.82C14.03 41.8 13.94 41.78 13.85 41.76L13.84 41.76C13.14 41.61 12.46 41.38 11.82 41.08C11.8 40.97 11.78 40.86 11.77 40.75C11.7 40.32 11.67 39.87 11.67 39.42C11.67 39.25 11.67 39.08 11.68 38.91C11.71 38.37 11.79 37.84 11.91 37.33C11.99 36.95 12.1 36.58 12.23 36.23C12.34 35.92 12.47 35.62 12.61 35.33C12.73 35.08 12.87 34.84 13.01 34.6C13.15 34.37 13.3 34.15 13.46 33.93C13.86 33.38 14.33 32.87 14.85 32.42C15.15 32.16 15.48 31.91 15.82 31.69C17.28 30.73 19.03 30.17 20.92 30.17C21.29 30.17 21.65 30.19 22 30.24L22.02 30.24C23.09 30.36 24.09 30.66 25.01 31.11C25.02 31.11 25.02 31.11 25.02 31.11C26.47 31.82 27.7 32.89 28.6 34.21C28.75 34.43 28.9 34.67 29.03 34.91C29.14 35.1 29.24 35.3 29.33 35.5C29.47 35.81 29.6 36.14 29.71 36.47L29.72 36.47C29.83 36.84 29.93 37.21 30 37.6L30 37.61C30.11 38.16 30.17 38.73 30.17 39.31L30.17 39.31Z" id="Forma" fill="#FFD54F" stroke="none" />
        <path d="M28.11 39.52L28.11 39.55C28.11 40.14 28.04 40.72 27.9 41.29C27.85 41.53 27.78 41.77 27.69 42L23.21 42L20.92 41.37L18.63 42L16 42C15.36 42 14.73 41.94 14.12 41.82C14.1 41.79 14.09 41.76 14.08 41.73C13.94 41.3 13.83 40.87 13.78 40.42C13.74 40.13 13.72 39.83 13.72 39.52C13.72 39.4 13.72 39.27 13.74 39.15C13.75 38.68 13.82 38.22 13.94 37.78C14 37.48 14.09 37.19 14.21 36.91C14.25 36.77 14.31 36.64 14.38 36.51C14.53 36.17 14.71 35.84 14.91 35.52C15.13 35.2 15.37 34.9 15.64 34.62C15.96 34.26 16.32 33.93 16.73 33.66C17.43 33.15 18.23 32.77 19.1 32.56C19.68 32.4 20.29 32.32 20.92 32.32C22.92 32.32 24.71 33.12 26.01 34.41C26.06 34.46 26.12 34.52 26.17 34.59L26.18 34.59C26.32 34.74 26.45 34.89 26.58 35.06C26.95 35.53 27.26 36.04 27.5 36.6C27.62 36.86 27.72 37.13 27.8 37.41C27.81 37.45 27.82 37.48 27.83 37.52C27.97 38.01 28.06 38.52 28.08 39.05C28.1 39.2 28.11 39.36 28.11 39.52L28.11 39.52Z" id="Forma" fill="#FFE082" stroke="none" />
        <path d="M26.06 39.52C26.06 39.93 26.01 40.32 25.9 40.69C25.8 41.09 25.65 41.47 25.46 41.83C25.43 41.89 25.36 42 25.36 42L16.48 42C16.47 41.99 16.46 41.97 16.46 41.96C16.34 41.77 16.24 41.58 16.16 41.37C15.96 40.91 15.84 40.41 15.8 39.89C15.78 39.77 15.78 39.64 15.78 39.52C15.78 39.46 15.78 39.39 15.79 39.33C15.8 38.89 15.86 38.47 15.98 38.08C16.08 37.72 16.21 37.39 16.38 37.07C16.38 37.07 16.39 37.06 16.39 37.05C16.51 36.84 16.64 36.63 16.79 36.43C17.28 35.77 17.93 35.23 18.68 34.88C18.69 34.88 18.69 34.88 18.69 34.88C18.93 34.76 19.18 34.66 19.44 34.59C19.44 34.59 19.44 34.59 19.45 34.59C19.91 34.45 20.41 34.38 20.92 34.38C21.51 34.38 22.08 34.47 22.6 34.66C22.79 34.71 22.97 34.79 23.15 34.88C23.15 34.88 23.15 34.88 23.16 34.88C24.02 35.29 24.75 35.93 25.25 36.73C25.35 36.88 25.44 37.04 25.52 37.21C25.56 37.28 25.6 37.36 25.63 37.43C25.86 37.95 26 38.52 26.04 39.12C26.05 39.17 26.05 39.22 26.05 39.28C26.06 39.36 26.06 39.44 26.06 39.52L26.06 39.52Z" id="Forma" fill="#FFECB3" stroke="none" />
        <g id="Group" transform="translate(11 11)">
          <path d="M19 0L7 0C3.1 0 0 3.1 0 7L0 19C0 22.9 3.1 26 7 26L19 26C22.9 26 26 22.9 26 19L26 7C26 3.1 22.9 0 19 0L19 0Z" id="Forma" fill="none" fill-rule="evenodd" stroke="#FFFFFF" stroke-width="2" stroke-linecap="round" stroke-linejoin="round" />
          <path d="M19 5C19 4.44772 19.4477 4 20 4C20.5523 4 21 4.44772 21 5C21 5.55228 20.5523 6 20 6C19.4477 6 19 5.55228 19 5Z" id="Círculo" fill="#FFFFFF" fill-rule="evenodd" stroke="none" />
        </g>
        <g id="Group" transform="translate(18 18)">
          <path d="M0 6C0 2.68629 2.68629 0 6 0C9.31371 0 12 2.68629 12 6C12 9.31371 9.31371 12 6 12C2.68629 12 0 9.31371 0 6Z" id="Círculo" fill="none" fill-rule="evenodd" stroke="#FFFFFF" stroke-width="2" stroke-linecap="round" stroke-linejoin="round" />
        </g>
      </g>
    </g>
    <g id="Facebook-Ícone" transform="translate(125 0)">
      <path d="M0 0L48 0L48 48L0 48L0 0Z" id="Fundo" fill="#FFFFFF" fill-opacity="0" fill-rule="evenodd" stroke="none" />
      <g clip-path="url(#mask_1)">
        <path d="M42 37C42 39.762 39.762 42 37 42L11 42C8.239 42 6 39.762 6 37L6 11C6 8.238 8.239 6 11 6L37 6C39.762 6 42 8.238 42 11L42 37L42 37Z" id="Forma" fill="#3F51B5" stroke="none" />
        <path d="M34.368 25L31 25L31 38L26 38L26 25L23 25L23 21L26 21L26 18.59C26.002 15.082 27.459 13 31.592 13L35 13L35 17L32.713 17C31.104 17 31 17.6 31 18.723L31 21L35 21L34.368 25L34.368 25Z" id="Forma" fill="#FFFFFF" stroke="none" />
      </g>
    </g>
    <g id="Telegram-App-Ícone" transform="translate(250 0)">
      <path d="M0 0L48 0L48 48L0 48L0 0Z" id="Fundo" fill="#FFFFFF" fill-opacity="0" fill-rule="evenodd" stroke="none" />
      <g clip-path="url(#mask_1)">
        <path d="M24 4C12.9543 4 4.00003 12.9543 4 23.9999C3.99997 35.0456 12.9542 43.9999 23.9999 44C35.0456 44 43.9999 35.0458 43.9999 24.0001C44 12.9544 35.0458 4.00009 24.0001 4L24 4Z" id="Forma" fill="#29B6F6" stroke="none" />
        <path d="M33.95 15L30.204 34.126C30.204 34.126 30.043 35 28.959 35C28.383 35 28.086 34.726 28.086 34.726L19.972 27.993L16.002 25.992L10.907 24.637C10.907 24.637 10 24.375 10 23.625C10 23 10.933 22.702 10.933 22.702L32.249 14.234C32.248 14.233 32.9 13.999 33.375 14C33.667 14 34 14.125 34 14.5C34 14.75 33.95 15 33.95 15L33.95 15Z" id="Forma" fill="#FFFFFF" stroke="none" />
        <path d="M23 30.505L19.574 33.879C19.574 33.879 19.425 33.994 19.226 33.999C19.157 34.001 19.083 33.99 19.007 33.956L19.971 27.991L23 30.505L23 30.505Z" id="Forma" fill="#B0BEC5" stroke="none" />
        <path d="M29.897 18.196C29.728 17.976 29.416 17.936 29.196 18.103L16 26C16 26 18.106 31.892 18.427 32.912C18.749 33.933 19.007 33.957 19.007 33.957L19.971 27.992L29.803 18.896C30.023 18.729 30.064 18.416 29.897 18.196L29.897 18.196Z" id="Forma" fill="#CFD8DC" stroke="none" />
      </g>
    </g>
  </g>
</svg>